<svg viewBox="0 0 56 26" xmlns="http://www.w3.org/2000/svg" xmlns:xlink="http://www.w3.org/1999/xlink" width="56.000000" height="26.000000" fill="none" customFrame="#000000">
	<defs>
		<linearGradient id="paint_linear_0" x1="28" x2="28" y1="0" y2="26" gradientUnits="userSpaceOnUse">
			<stop stop-color="rgb(22,108,216)" offset="0.389423072" stop-opacity="1" />
			<stop stop-color="rgb(99,208,223)" offset="0.778846145" stop-opacity="1" />
		</linearGradient>
	</defs>
	<path id="Logo KLM" d="M12.1651 0C13.2294 0 14.0922 0.869944 14.0922 1.94307L14.0922 1.95446C14.0922 3.02759 13.2294 3.89753 12.1651 3.89753C11.1007 3.89753 10.2379 3.02759 10.2379 1.95446L10.2379 1.94307C10.2379 0.869944 11.1007 0 12.1651 0ZM7.04611 2.79317C8.11044 2.79317 8.97325 3.66311 8.97325 4.73624L8.97325 4.74763C8.97325 5.82076 8.11044 6.6907 7.04611 6.6907C5.98178 6.6907 5.11897 5.82076 5.11897 4.74763L5.11897 4.73624C5.11897 3.66311 5.98178 2.79317 7.04611 2.79317ZM17.284 2.79317C18.3484 2.79317 19.2112 3.66311 19.2112 4.73624L19.2112 4.74763C19.2112 5.82076 18.3484 6.6907 17.284 6.6907C16.2197 6.6907 15.3569 5.82076 15.3569 4.74763L15.3569 4.73624C15.3569 3.66311 16.2197 2.79317 17.284 2.79317ZM1.92714 5.4649C2.99147 5.4649 3.85428 6.33484 3.85428 7.40797L3.85428 7.41935C3.85428 8.49249 2.99147 9.36243 1.92714 9.36243C0.86281 9.36243 0 8.49249 0 7.41935L0 7.40797C0 6.33484 0.86281 5.4649 1.92714 5.4649ZM12.1651 5.4649C13.2294 5.4649 14.0922 6.33484 14.0922 7.40797L14.0922 7.41935C14.0922 8.49249 13.2294 9.36243 12.1651 9.36243C11.1007 9.36243 10.2379 8.49249 10.2379 7.41935L10.2379 7.40797C10.2379 6.33484 11.1007 5.4649 12.1651 5.4649ZM22.403 5.4649C23.4673 5.4649 24.3302 6.33484 24.3302 7.40797L24.3302 7.41935C24.3302 8.49249 23.4673 9.36243 22.403 9.36243C21.3387 9.36243 20.4759 8.49249 20.4759 7.41935L20.4759 7.40797C20.4759 6.33484 21.3387 5.4649 22.403 5.4649ZM53.1394 6.86907C54.0629 6.86908 54.7704 7.16258 55.2623 7.74953C55.7541 8.33647 56 9.18155 56 10.2846L56 16.5161C56 17.0527 55.5686 17.4877 55.0364 17.4877L53.9072 17.4877C53.3751 17.4877 52.9437 17.0527 52.9437 16.5161L52.9437 10.7476C52.9437 10.4137 52.9161 10.1936 52.8609 10.0873C52.8107 9.97596 52.7053 9.92031 52.5447 9.9203C52.2437 9.9203 52.093 10.1784 52.093 10.6945L52.093 16.5161C52.093 17.0527 51.6616 17.4877 51.1295 17.4877L50.0003 17.4877C49.4681 17.4877 49.0367 17.0527 49.0367 16.5161L49.0367 10.7476C49.0367 10.4188 49.0091 10.1986 48.9539 10.0873C48.8987 9.97595 48.7907 9.9203 48.6302 9.9203C48.329 9.92033 48.1785 10.1961 48.1785 10.7476L48.1785 16.5161C48.1785 17.0527 47.7471 17.4877 47.2149 17.4877L46.0858 17.4877C45.5536 17.4877 45.1222 17.0527 45.1222 16.5161L45.1222 10.019C45.1222 9.093 45.4007 8.33647 45.9578 7.74953C46.5148 7.16257 47.2375 6.86907 48.1258 6.86907C48.6426 6.86907 49.1009 6.98629 49.5006 7.22106C50.1164 7.58294 51.0166 7.59618 51.6319 7.2334C51.6451 7.22565 51.6583 7.21804 51.6715 7.21063C52.068 6.98292 52.5573 6.86907 53.1394 6.86907ZM30.3675 7.12713C30.8997 7.12715 31.3311 7.56212 31.3311 8.09867L31.3311 16.5161C31.3311 17.0527 30.8997 17.4876 30.3675 17.4877L29.2383 17.4877C28.7062 17.4876 28.2748 17.0527 28.2748 16.5161L28.2748 8.09867C28.2748 7.56212 28.7062 7.12716 29.2383 7.12713L30.3675 7.12713ZM35.5204 7.12713C36.083 7.12718 36.4852 7.59297 36.4852 8.10032C36.4852 8.26303 36.4439 8.43002 36.3531 8.58729L34.7422 11.3805C34.6553 11.531 34.6116 11.6998 34.6116 11.869C34.6116 12.0125 34.643 12.1562 34.7064 12.2894L36.5178 16.0958C36.5836 16.234 36.6138 16.3768 36.6138 16.516C36.6138 17.0264 36.2067 17.4875 35.6493 17.4877L34.394 17.4877C34.003 17.4877 33.6502 17.2491 33.5019 16.8843L31.6002 12.204C31.5521 12.0856 31.5283 11.9605 31.5283 11.8358C31.5283 11.6685 31.5711 11.5019 31.6557 11.3529L33.7786 7.61575C33.9503 7.31355 34.2697 7.12713 34.6151 7.12713L35.5204 7.12713ZM40.1086 7.12713C40.6408 7.12714 41.0722 7.56211 41.0722 8.09867L41.0722 13.2827C41.0722 13.7634 41.1474 14.0847 41.298 14.2467C41.4535 14.4035 41.7572 14.482 42.2089 14.482L42.9325 14.5218C43.443 14.5505 43.8425 14.9768 43.8425 15.4924L43.8425 16.5161C43.8425 17.0527 43.411 17.4877 42.8789 17.4877L41.554 17.4877C40.4399 17.4877 39.5716 17.1613 38.9493 16.5085C38.327 15.8507 38.0159 14.9399 38.0159 13.7761L38.0159 8.09867C38.0159 7.56211 38.4473 7.12713 38.9794 7.12713L40.1086 7.12713ZM7.10633 7.89374C8.17066 7.89374 9.03347 8.76368 9.03347 9.83681L9.03347 9.8482C9.03347 10.9213 8.17066 11.7913 7.10633 11.7913C6.042 11.7913 5.17919 10.9213 5.17919 9.8482L5.17919 9.83681C5.17919 8.76368 6.042 7.89374 7.10633 7.89374ZM17.2238 7.89374C18.2882 7.89374 19.151 8.76368 19.151 9.83681L19.151 9.8482C19.151 10.9213 18.2882 11.7913 17.2238 11.7913C16.1595 11.7913 15.2967 10.9213 15.2967 9.8482L15.2967 9.83681C15.2967 8.76368 16.1595 7.89374 17.2238 7.89374ZM12.1651 10.3226C13.2294 10.3226 14.0922 11.1925 14.0922 12.2657L14.0922 12.277L14.0819 12.4753C13.9833 13.4553 13.163 14.2201 12.1651 14.2201C11.1671 14.2201 10.3468 13.4553 10.2483 12.4753L10.2379 12.277L10.2379 12.2657C10.2379 11.1925 11.1007 10.3226 12.1651 10.3226ZM1.92714 10.8083C2.72539 10.8083 3.3725 11.4608 3.3725 12.2657L3.3725 12.277C3.3725 13.0819 2.72539 13.7343 1.92714 13.7343C1.12889 13.7343 0.481785 13.0819 0.481785 12.277L0.481785 12.2657C0.481785 11.4608 1.12889 10.8083 1.92714 10.8083ZM22.403 10.8083C23.2013 10.8083 23.8484 11.4608 23.8484 12.2657L23.8484 12.277C23.8484 13.0819 23.2013 13.7343 22.403 13.7343C21.6048 13.7343 20.9577 13.0819 20.9577 12.277L20.9577 12.2657C20.9577 11.4608 21.6048 10.8083 22.403 10.8083ZM7.10633 13.2372C7.90458 13.2372 8.55169 13.8896 8.55169 14.6945L8.55169 14.7059C8.55169 15.5107 7.90458 16.1632 7.10633 16.1632C6.30808 16.1632 5.66098 15.5107 5.66098 14.7059L5.66098 14.6945C5.66098 13.8896 6.30808 13.2372 7.10633 13.2372ZM17.2238 13.2372C18.0221 13.2372 18.6692 13.8896 18.6692 14.6945L18.6692 14.7059C18.6692 15.5107 18.0221 16.1632 17.2238 16.1632C16.4256 16.1632 15.7785 15.5107 15.7785 14.7059L15.7785 14.6945C15.7785 13.8896 16.4256 13.2372 17.2238 13.2372ZM1.92714 14.6945C2.59235 14.6945 3.1316 15.2382 3.1316 15.9089L3.1316 15.9203C3.1316 16.591 2.59235 17.1347 1.92714 17.1347C1.26193 17.1347 0.722678 16.591 0.722678 15.9203L0.722678 15.9089C0.722678 15.2382 1.26193 14.6945 1.92714 14.6945ZM22.403 14.6945C23.0682 14.6945 23.6075 15.2382 23.6075 15.9089L23.6075 15.9203C23.6075 16.591 23.0682 17.1347 22.403 17.1347C21.7378 17.1347 21.1985 16.591 21.1985 15.9203L21.1985 15.9089C21.1985 15.2382 21.7378 14.6945 22.403 14.6945ZM12.1651 15.666C12.9633 15.666 13.6104 16.3185 13.6104 17.1233L13.6104 17.1347C13.6104 17.9396 12.9633 18.592 12.1651 18.592C11.3668 18.592 10.7197 17.9396 10.7197 17.1347L10.7197 17.1233C10.7197 16.3185 11.3668 15.666 12.1651 15.666ZM7.10633 17.1233C7.77154 17.1233 8.31079 17.6671 8.31079 18.3378L8.31079 18.3491C8.31079 19.0199 7.77154 19.5636 7.10633 19.5636C6.44112 19.5636 5.90187 19.0199 5.90187 18.3491L5.90187 18.3378C5.90187 17.6671 6.44112 17.1233 7.10633 17.1233ZM17.2238 17.1233C17.889 17.1233 18.4283 17.6671 18.4283 18.3378L18.4283 18.3491C18.4283 19.0199 17.889 19.5636 17.2238 19.5636C16.5586 19.5636 16.0194 19.0199 16.0194 18.3491L16.0194 18.3378C16.0194 17.6671 16.5586 17.1233 17.2238 17.1233ZM1.92714 18.5806C2.45931 18.5806 2.89071 19.0156 2.89071 19.5522L2.89071 19.5636C2.89071 20.1001 2.45931 20.5351 1.92714 20.5351C1.39498 20.5351 0.96357 20.1001 0.96357 19.5636L0.96357 19.5522C0.96357 19.0156 1.39498 18.5806 1.92714 18.5806ZM22.403 18.5806C22.9352 18.5806 23.3666 19.0156 23.3666 19.5522L23.3666 19.5636C23.3666 20.1001 22.9352 20.5351 22.403 20.5351C21.8708 20.5351 21.4394 20.1001 21.4394 19.5636L21.4394 19.5522C21.4394 19.0156 21.8708 18.5806 22.403 18.5806ZM12.1651 20.1594C12.8303 20.1594 13.3695 20.7031 13.3695 21.3738L13.3695 21.3852C13.3695 22.0559 12.8303 22.5996 12.1651 22.5996C11.4999 22.5996 10.9606 22.0559 10.9606 21.3852L10.9606 21.3738C10.9606 20.7031 11.4999 20.1594 12.1651 20.1594ZM7.10633 21.0095C7.6385 21.0095 8.0699 21.4445 8.0699 21.981L8.0699 21.9924C8.0699 22.529 7.6385 22.9639 7.10633 22.9639C6.57417 22.9639 6.14276 22.529 6.14276 21.9924L6.14276 21.981C6.14276 21.4445 6.57417 21.0095 7.10633 21.0095ZM17.2238 21.0095C17.756 21.0095 18.1874 21.4445 18.1874 21.981L18.1874 21.9924C18.1874 22.529 17.756 22.9639 17.2238 22.9639C16.6917 22.9639 16.2603 22.529 16.2603 21.9924L16.2603 21.981C16.2603 21.4445 16.6917 21.0095 17.2238 21.0095ZM12.1651 24.0455C12.6972 24.0455 13.1286 24.4805 13.1286 25.0171L13.1286 25.0285C13.1286 25.565 12.6972 26 12.1651 26C11.6329 26 11.2015 25.565 11.2015 25.0285L11.2015 25.0171C11.2015 24.4805 11.6329 24.0455 12.1651 24.0455Z" fill="url(#paint_linear_0)" fill-rule="evenodd" />
</svg>
