<svg width="727" height="148" viewBox="0 0 727 148" fill="none" xmlns="http://www.w3.org/2000/svg">
<path d="M35.84 121.28C27.904 121.28 18.0907 120.512 6.4 118.976V103.744C20.9067 105.963 30.8053 107.072 36.096 107.072C47.1893 107.072 52.736 104.213 52.736 98.496V93.12C52.736 90.3893 51.9253 88.2987 50.304 86.848C48.768 85.3973 45.952 84.672 41.856 84.672H32.128C13.8667 84.672 4.736 77.4187 4.736 62.912V56.768C4.736 49.5147 7.76533 44.1813 13.824 40.768C19.8827 37.3547 29.4827 35.648 42.624 35.648C49.4507 35.648 58.112 36.2027 68.608 37.312V52.16C55.7227 50.624 46.848 49.856 41.984 49.856C35.2427 49.856 30.72 50.4107 28.416 51.52C25.9413 52.7147 24.704 54.592 24.704 57.152V63.04C24.704 67.392 28.3733 69.568 35.712 69.568H45.696C55.168 69.568 62.0373 71.3173 66.304 74.816C70.5707 78.3147 72.704 83.648 72.704 90.816V96.32C72.704 106.219 69.1627 112.917 62.08 116.416C58.6667 118.208 54.8693 119.445 50.688 120.128C46.592 120.896 41.6427 121.28 35.84 121.28ZM116.921 121.28C94.9903 121.28 84.025 114.581 84.025 101.184V78.912C84.025 71.1467 86.4997 65.5147 91.449 62.016C96.4837 58.5173 104.206 56.768 114.617 56.768C124.43 56.768 131.598 58.4747 136.121 61.888C140.729 65.216 143.033 70.8907 143.033 78.912V94.016H102.841V99.648C102.841 103.232 104.121 105.792 106.681 107.328C109.241 108.864 113.849 109.632 120.505 109.632C126.649 109.632 133.561 108.736 141.241 106.944V118.848C133.646 120.469 125.54 121.28 116.921 121.28ZM125.241 83.392V74.432C125.241 72.384 124.388 70.848 122.681 69.824C121.06 68.8 118.286 68.288 114.361 68.288C109.838 68.288 106.809 68.8 105.273 69.824C103.652 70.9333 102.841 72.4693 102.841 74.432V83.392H125.241ZM187.525 121.28C184.282 121.28 181.722 121.195 179.845 121.024C177.968 120.939 175.664 120.725 172.933 120.384C170.202 120.043 167.941 119.445 166.149 118.592C164.442 117.739 162.65 116.459 160.773 114.752C157.274 111.851 155.525 106.901 155.525 99.904V79.296C155.525 73.664 156.805 68.9707 159.365 65.216C160.304 63.8507 161.669 62.6133 163.461 61.504C165.338 60.3093 167.216 59.3707 169.093 58.688C170.629 58.176 172.677 57.7493 175.237 57.408C177.797 57.0667 180.058 56.8533 182.021 56.768H188.805C193.584 56.768 199.856 57.536 207.621 59.072V71.36C198.832 69.312 192.09 68.288 187.397 68.288C178.778 68.288 174.469 71.1893 174.469 76.992V99.776C174.469 106.347 179.205 109.632 188.677 109.632C193.285 109.632 199.898 108.693 208.517 106.816V119.104C200.752 120.555 193.754 121.28 187.525 121.28ZM248.763 121.28C244.923 121.28 241.766 121.152 239.291 120.896C236.816 120.64 234.171 120.128 231.355 119.36C228.283 118.507 225.808 117.312 223.931 115.776C222.054 114.155 220.475 111.893 219.195 108.992C217.915 106.176 217.275 102.763 217.275 98.752V80.448C217.275 76.352 217.915 72.768 219.195 69.696C220.475 66.624 222.139 64.2347 224.187 62.528C225.979 61.0773 228.326 59.8827 231.227 58.944C234.214 57.92 237.115 57.28 239.931 57.024C243.174 56.8533 246.118 56.768 248.763 56.768C252.688 56.768 255.803 56.896 258.107 57.152C260.496 57.3227 263.099 57.8347 265.915 58.688C268.987 59.6267 271.462 60.9067 273.339 62.528C275.302 64.1493 276.966 66.4533 278.331 69.44C279.611 72.512 280.251 76.1813 280.251 80.448V98.752C280.251 102.592 279.611 105.963 278.331 108.864C277.136 111.765 275.558 114.027 273.595 115.648C271.888 117.099 269.542 118.293 266.555 119.232C263.654 120.085 260.795 120.64 257.979 120.896C255.419 121.152 252.347 121.28 248.763 121.28ZM248.763 109.632C252.262 109.632 254.907 109.376 256.699 108.864C258.491 108.267 259.728 107.371 260.411 106.176C261.179 104.981 261.563 103.232 261.563 100.928V77.504C261.563 74.0907 260.667 71.7013 258.875 70.336C257.083 68.9707 253.712 68.288 248.763 68.288C243.814 68.288 240.443 68.9707 238.651 70.336C236.859 71.7013 235.963 74.0907 235.963 77.504V100.928C235.963 103.232 236.304 104.981 236.987 106.176C237.755 107.371 239.035 108.267 240.827 108.864C242.619 109.376 245.264 109.632 248.763 109.632ZM294.817 58.048H313.249V65.6C314.7 59.712 321.313 56.768 333.089 56.768C341.025 56.768 346.572 58.2187 349.729 61.12C352.972 63.936 354.593 68.416 354.593 74.56V120H335.905V76.992C335.905 74.6027 335.649 72.8107 335.137 71.616C334.71 70.4213 333.772 69.568 332.321 69.056C330.956 68.544 328.822 68.288 325.921 68.288C322.252 68.288 319.564 68.544 317.857 69.056C316.15 69.4827 314.998 70.2933 314.401 71.488C313.804 72.6827 313.505 74.5173 313.505 76.992V120H294.817V58.048ZM394.75 121.28C387.411 121.28 381.993 120.768 378.494 119.744C374.995 118.635 372.563 116.587 371.198 113.6C369.833 110.613 369.15 105.963 369.15 99.648V75.456C369.15 68.6293 371.07 63.808 374.91 60.992C378.835 58.176 385.15 56.768 393.854 56.768C397.95 56.768 401.15 57.024 403.454 57.536C405.843 57.9627 407.763 58.7733 409.214 59.968C410.665 61.0773 412.158 62.7413 413.694 64.96V30.4H432.382V120H414.334V112.96C412.798 115.435 411.39 117.184 410.11 118.208C408.915 119.147 407.209 119.872 404.99 120.384C402.686 120.981 399.273 121.28 394.75 121.28ZM399.486 109.632C403.667 109.632 406.739 109.419 408.702 108.992C410.665 108.565 411.987 107.797 412.67 106.688C413.353 105.493 413.694 103.744 413.694 101.44V76.48C413.694 74.3467 413.31 72.7253 412.542 71.616C411.859 70.4213 410.579 69.568 408.702 69.056C406.91 68.544 404.179 68.288 400.51 68.288C396.585 68.288 393.769 68.544 392.062 69.056C390.355 69.4827 389.203 70.2933 388.606 71.488C388.094 72.5973 387.838 74.4747 387.838 77.12V100.8C387.838 103.189 388.094 105.024 388.606 106.304C389.203 107.499 390.313 108.352 391.934 108.864C393.555 109.376 396.073 109.632 399.486 109.632Z" fill="#000"/>
<path d="M469.16 51.136H443.56V36.928H514.6V51.136H489.128V120H469.16V51.136ZM556.421 121.28C534.49 121.28 523.525 114.581 523.525 101.184V78.912C523.525 71.1467 526 65.5147 530.949 62.016C535.984 58.5173 543.706 56.768 554.117 56.768C563.93 56.768 571.098 58.4747 575.621 61.888C580.229 65.216 582.533 70.8907 582.533 78.912V94.016H542.341V99.648C542.341 103.232 543.621 105.792 546.181 107.328C548.741 108.864 553.349 109.632 560.005 109.632C566.149 109.632 573.061 108.736 580.741 106.944V118.848C573.146 120.469 565.04 121.28 556.421 121.28ZM564.741 83.392V74.432C564.741 72.384 563.888 70.848 562.181 69.824C560.56 68.8 557.786 68.288 553.861 68.288C549.338 68.288 546.309 68.8 544.773 69.824C543.152 70.9333 542.341 72.4693 542.341 74.432V83.392H564.741ZM627.025 121.28C623.782 121.28 621.222 121.195 619.345 121.024C617.468 120.939 615.164 120.725 612.433 120.384C609.702 120.043 607.441 119.445 605.649 118.592C603.942 117.739 602.15 116.459 600.273 114.752C596.774 111.851 595.025 106.901 595.025 99.904V79.296C595.025 73.664 596.305 68.9707 598.865 65.216C599.804 63.8507 601.169 62.6133 602.961 61.504C604.838 60.3093 606.716 59.3707 608.593 58.688C610.129 58.176 612.177 57.7493 614.737 57.408C617.297 57.0667 619.558 56.8533 621.521 56.768H628.305C633.084 56.768 639.356 57.536 647.121 59.072V71.36C638.332 69.312 631.59 68.288 626.897 68.288C618.278 68.288 613.969 71.1893 613.969 76.992V99.776C613.969 106.347 618.705 109.632 628.177 109.632C632.785 109.632 639.398 108.693 648.017 106.816V119.104C640.252 120.555 633.254 121.28 627.025 121.28ZM658.567 30.4H677.255V65.6C678.45 59.712 684.978 56.768 696.839 56.768C704.775 56.768 710.322 58.2187 713.479 61.12C716.722 63.936 718.343 68.416 718.343 74.56V120H699.655V76.736C699.655 74.3467 699.399 72.5973 698.887 71.488C698.46 70.2933 697.564 69.4827 696.199 69.056C694.834 68.544 692.658 68.288 689.671 68.288C686.002 68.288 683.314 68.5013 681.607 68.928C679.9 69.3547 678.748 70.1653 678.151 71.36C677.554 72.4693 677.255 74.2613 677.255 76.736V120H658.567V30.4Z" fill="#3B82F6"/>
<rect x="469" y="133" width="249" height="13" fill="#3B82F6"/>
</svg>
