<svg width="49" height="48" viewBox="0 0 49 48" fill="none" xmlns="http://www.w3.org/2000/svg">
<path d="M39.4991 35.9774V31.4611C39.5174 30.7228 39.2633 30.0035 38.7849 29.4401C37.4359 27.8511 32.8092 26.8346 30.9752 27.225C29.5456 27.5293 28.5454 28.9647 27.5675 29.9406C23.7911 27.7976 20.6643 24.677 18.517 20.9081C19.4949 19.9322 20.9332 18.9339 21.2381 17.5071C21.6286 15.6796 20.6136 11.0825 19.0356 9.72807C18.4805 9.25167 17.7708 8.99296 17.0388 9.00015H12.5135C10.7893 9.00177 9.35479 10.5482 9.51177 12.282C9.5 27.225 21.1667 39 36.2107 38.9882C37.9538 39.1455 39.5061 37.7038 39.4991 35.9774Z" stroke="#2B4C7E" stroke-width="1.5" stroke-linecap="round" stroke-linejoin="round"/>
</svg>
